<svg xmlns="http://www.w3.org/2000/svg"  viewBox="0 0 48 48" width="48px" height="48px" baseProfile="basic"><path fill="#00838f" d="M15,6h18c4.971,0,9,4.029,9,9v18c0,4.971-4.029,9-9,9H15c-4.971,0-9-4.029-9-9V15 C6,10.029,10.029,6,15,6z"/><path fill="#fff" d="M17.02,16.612c0,0,0-0.053,0-0.083c0.023-0.333,0.272-2.246,3.116-2.503 c2.836-0.189,2.934,1.044,2.934,1.044v17.393l5.581-16.168c0,0,0.877-1.838,3.153-2.647c0.28-0.098,0.567,0.136,0.507,0.431 c-0.862,4.136-4.416,17.249-4.416,17.249S26.306,37,22.313,37c0,0-3.04,0.121-3.781-3.69C17.791,29.498,17.065,17.376,17.02,16.612 z"/></svg>